#N canvas -8 -8 1680 967 10;
#X obj 839 33 netreceive 4545;
#X msg 16 73 \; pd dsp \$1;
#X floatatom 841 87 5 0 0 0 - - -;
#X obj 1085 295 vsl 15 50 0 0.5 0 0 empty empty empty 0 -9 0 10 -262144
-1 -1 2300 1;
#X obj 844 891 dac~ 1 2;
#X obj 838 556 *~;
#X obj 1307 332 readsf~;
#X obj 1427 252 bng 15 250 50 0 empty empty empty 17 7 0 10 -262144
-1 -1;
#X text 1327 185 base sound loop;
#X text 43 587 2: left speaker;
#X text 45 616 3: right speaker;
#X text 46 644 4: volume up;
#X text 45 673 5: volume down;
#X text 45 700 6: initialisation;
#X obj 763 560 *~;
#X obj 905 555 *~;
#X obj 978 295 vsl 15 50 0 1.7 0 0 empty empty empty 0 -9 0 10 -262144
-1 -1 4700 1;
#X obj 1028 295 vsl 15 50 0 0.5 0 0 empty empty empty 0 -9 0 10 -262144
-1 -1 400 1;
#X msg 16 135 stop;
#X msg 752 375 0;
#X msg 815 373 0;
#X obj 760 893 dac~ 1;
#X obj 942 891 dac~ 2;
#X obj 800 236 moses 3;
#X obj 846 210 moses 4;
#X obj 882 185 moses 5;
#X obj 927 153 moses 6;
#X obj 746 259 moses 2;
#X obj 691 285 moses 1;
#X obj 1026 254 bng 15 250 50 0 empty empty empty 17 7 0 10 -262144
-1 -1;
#X obj 978 258 bng 15 250 50 0 empty empty empty 17 7 0 10 -262144
-1 -1;
#X obj 1085 254 bng 15 250 50 0 empty empty empty 17 7 0 10 -262144
-1 -1;
#X obj 16 28 tgl 15 0 empty empty empty 17 7 0 10 -262144 -1 -1 1 1
;
#N canvas 0 50 450 250 (subpatch) 0;
#X array pitch 326086 float 4;
#X coords 0 1 326085 -1 200 140 1;
#X restore 33 779 graph;
#X obj 366 362 soundfiler;
#X floatatom 376 407 10 0 0 0 - - -;
#X obj 368 504 phasor~;
#X obj 405 563 *~;
#X obj 412 603 tabread4~ pitch;
#X obj 22 322 hsl 128 15 0 3 0 0 empty empty empty -2 -8 0 10 -262144
-1 -1 0 1;
#X floatatom 490 547 5 0 0 0 - - -;
#X msg 503 391 0;
#X text 44 557 1: change pitch;
#X msg 876 372 0;
#X obj 382 46 delay 1000 1 msec;
#X msg 305 53 10000;
#X msg 703 81 1;
#X text 36 370 Manual:;
#X msg 1321 210 open chord.wav \, start;
#X msg 363 319 read -resize chord.wav pitch;
#X msg 358 156 0;
#X text 800 9 Receive From Python Script;
#X text 743 895 L;
#X text 987 891 R;
#X text 806 578 Audio Operators;
#X text 849 920 Speakers;
#X text 317 18 Delay Timer;
#X text 495 46 = 10 sec;
#X text 54 133 Stop Audio Loop;
#X text 44 29 Audio On/Off;
#X text 21 534 Dimension Controllers;
#X text 35 296 Pitch Slider;
#X text 36 159 comment;
#X text 1024 330 ---;
#X text 981 350 4;
#X text 1087 348 6;
#X text 1031 350 5;
#X text 1081 312 ---;
#X text 975 288 ---;
#X text 20 391 Before starting ensure audio is on and volume 4 set
to high mark \, volume 5 to low mark \, volume 6 to halfway mark and
pitch slider to around halfway, f 16;
#X text 372 289 Pitch Controller;
#X text 976 369 Volume Controllers;
#X text 777 402 Spatial Controllers;
#X text 736 375 L;
#X text 844 372 R;
#X obj 367 466 expr 44100/$f1;
#X connect 0 0 2 0;
#X connect 2 0 26 0;
#X connect 3 0 5 1;
#X connect 5 0 4 0;
#X connect 5 0 4 1;
#X connect 6 0 5 0;
#X connect 6 0 14 0;
#X connect 6 0 15 0;
#X connect 6 1 7 0;
#X connect 7 0 48 0;
#X connect 14 0 21 0;
#X connect 15 0 22 0;
#X connect 16 0 5 1;
#X connect 17 0 5 1;
#X connect 18 0 6 0;
#X connect 19 0 5 1;
#X connect 19 0 15 1;
#X connect 20 0 14 1;
#X connect 20 0 5 1;
#X connect 23 0 27 0;
#X connect 23 1 20 0;
#X connect 23 1 15 1;
#X connect 23 1 50 0;
#X connect 23 1 45 0;
#X connect 24 0 23 0;
#X connect 24 1 30 0;
#X connect 24 1 50 0;
#X connect 24 1 45 0;
#X connect 24 1 43 0;
#X connect 25 0 24 0;
#X connect 25 1 29 0;
#X connect 25 1 50 0;
#X connect 25 1 45 0;
#X connect 25 1 43 0;
#X connect 26 0 25 0;
#X connect 26 1 48 0;
#X connect 26 1 31 0;
#X connect 26 1 50 0;
#X connect 26 1 5 0;
#X connect 26 1 43 0;
#X connect 27 0 28 0;
#X connect 27 1 19 0;
#X connect 27 1 14 1;
#X connect 27 1 50 0;
#X connect 27 1 45 0;
#X connect 28 1 41 0;
#X connect 28 1 45 0;
#X connect 28 1 49 0;
#X connect 29 0 17 0;
#X connect 30 0 16 0;
#X connect 31 0 3 0;
#X connect 32 0 1 0;
#X connect 34 0 35 0;
#X connect 35 0 37 1;
#X connect 35 0 75 0;
#X connect 36 0 37 0;
#X connect 37 0 38 0;
#X connect 38 0 4 0;
#X connect 38 0 4 1;
#X connect 39 0 36 0;
#X connect 39 0 40 0;
#X connect 41 0 14 1;
#X connect 41 0 5 1;
#X connect 41 0 15 1;
#X connect 43 0 14 1;
#X connect 43 0 15 1;
#X connect 44 0 46 0;
#X connect 44 0 43 0;
#X connect 44 0 50 0;
#X connect 45 0 44 0;
#X connect 46 0 31 0;
#X connect 46 0 5 1;
#X connect 48 0 6 0;
#X connect 49 0 34 0;
#X connect 50 0 36 0;
#X connect 75 0 36 0;
